<svg xmlns="http://www.w3.org/2000/svg" xmlns:xlink="http://www.w3.org/1999/xlink" width="134" height="134" viewBox="0 0 134 134"><defs><clipPath id="a"><rect width="76.197" height="76.412" fill="none"/></clipPath></defs><g transform="translate(323 -4073)"><circle cx="67" cy="67" r="67" transform="translate(-323 4073)"/><path d="M67,5A61.687,61.687,0,0,0,32.339,15.586,62.2,62.2,0,0,0,9.87,42.868a61.912,61.912,0,0,0,5.715,58.793A62.2,62.2,0,0,0,42.868,124.13a61.912,61.912,0,0,0,58.793-5.715A62.2,62.2,0,0,0,124.13,91.132a61.912,61.912,0,0,0-5.715-58.793A62.2,62.2,0,0,0,91.132,9.87,61.607,61.607,0,0,0,67,5m0-5A67,67,0,1,1,0,67,67,67,0,0,1,67,0Z" transform="translate(-323 4073)" fill="#dae51c"/><g transform="translate(-294 4102)"><g transform="translate(0 0)" clip-path="url(#a)"><path d="M42.006,76.412a5.359,5.359,0,0,1-5.231-4.232l-.428-2a31.806,31.806,0,0,1-7.783-1.405l-1.1,1.725a5.359,5.359,0,0,1-7.389,1.633l-5.139-3.278A5.357,5.357,0,0,1,13.3,61.467l1.1-1.731a31.841,31.841,0,0,1-4.391-6.151l-1.992.478A5.359,5.359,0,0,1,1.57,50.108L.148,44.181A5.357,5.357,0,0,1,4.1,37.729l1.989-.478A31.923,31.923,0,0,1,7.3,29.432L5.551,28.378a5.359,5.359,0,0,1-1.817-7.346l3.15-5.22A5.359,5.359,0,0,1,14.229,14l1.754,1.059a32.416,32.416,0,0,1,7.44-5.308l-.428-2A5.359,5.359,0,0,1,27.108,1.4L33.07.121a5.358,5.358,0,0,1,6.351,4.113l.428,2a31.806,31.806,0,0,1,7.784,1.405l1.1-1.725a5.357,5.357,0,0,1,7.39-1.634l5.139,3.278a5.357,5.357,0,0,1,1.634,7.389l-1.1,1.731a31.824,31.824,0,0,1,4.391,6.151l1.992-.478a5.36,5.36,0,0,1,6.452,3.955l1.423,5.927a5.358,5.358,0,0,1-3.955,6.452l-1.989.478A31.955,31.955,0,0,1,68.9,46.981l1.747,1.055a5.359,5.359,0,0,1,1.817,7.346L69.313,60.6a5.358,5.358,0,0,1-7.346,1.817L60.213,61.36a32.428,32.428,0,0,1-7.44,5.307l.428,2a5.357,5.357,0,0,1-4.113,6.351l-5.962,1.275a5.315,5.315,0,0,1-1.12.119M40.7,64.8l1.337,6.255,5.926-1.3-1.359-6.2,2.029-.874a26.884,26.884,0,0,0,9.16-6.534l1.487-1.632,5.468,3.3L67.855,52.6,62.4,49.347l.751-2.077a26.584,26.584,0,0,0,1.583-9.063c0-.354-.013-.7-.028-1.056l-.086-2.206,6.185-1.484-1.416-5.9L63.22,29.074l-.925-2a26.572,26.572,0,0,0-5.78-8.1l-1.6-1.528,3.438-5.39-5.13-3.236-3.393,5.375-2.06-.8A26.5,26.5,0,0,0,38.1,11.568l-2.6.046L34.159,5.359l-5.926,1.3,1.357,6.2-2.027.874a26.886,26.886,0,0,0-9.16,6.534L16.917,21.9l-5.468-3.3L8.341,23.813l5.452,3.254-.751,2.078a26.561,26.561,0,0,0-1.583,9.062c0,.354.014.706.028,1.057l.086,2.205L5.358,42.961,6.8,48.853l6.173-1.513.925,2.005a26.592,26.592,0,0,0,5.78,8.1l1.595,1.528-3.438,5.39L22.968,67.6l3.393-5.375,2.058.8A26.5,26.5,0,0,0,38.1,64.846Z" transform="translate(0 0)" fill="#ddd90f"/><path d="M46.722,67.263A20.38,20.38,0,1,1,67.1,46.883a20.4,20.4,0,0,1-20.38,20.38m0-35.379a15,15,0,1,0,15,15,15.016,15.016,0,0,0-15-15" transform="translate(-8.624 -8.677)" fill="#ddd90f"/></g></g></g></svg>