<svg xmlns="http://www.w3.org/2000/svg" xmlns:xlink="http://www.w3.org/1999/xlink" width="134" height="134" viewBox="0 0 134 134"><defs><clipPath id="a"><rect width="80.287" height="76.412" fill="none"/></clipPath></defs><g transform="translate(323 -4649)"><circle cx="67" cy="67" r="67" transform="translate(-323 4649)"/><path d="M67,5A61.687,61.687,0,0,0,32.339,15.586,62.2,62.2,0,0,0,9.87,42.868a61.912,61.912,0,0,0,5.715,58.793A62.2,62.2,0,0,0,42.868,124.13a61.912,61.912,0,0,0,58.793-5.715A62.2,62.2,0,0,0,124.13,91.132a61.912,61.912,0,0,0-5.715-58.793A62.2,62.2,0,0,0,91.132,9.87,61.607,61.607,0,0,0,67,5m0-5A67,67,0,1,1,0,67,67,67,0,0,1,67,0Z" transform="translate(-323 4649)" fill="#dae51c"/><g transform="translate(-296 4678)"><g clip-path="url(#a)"><path d="M43.614,48.978,42.041,39a22.4,22.4,0,0,1-5.66-14.673C36.381,10.911,48.925,0,64.345,0S92.308,10.911,92.308,24.322,79.764,48.643,64.345,48.643a31.242,31.242,0,0,1-11.6-2.187ZM53.121,40.8l.868.376a25.832,25.832,0,0,0,10.355,2.114c12.465,0,22.606-8.507,22.606-18.965S76.81,5.356,64.345,5.356,41.737,13.865,41.737,24.322A16.939,16.939,0,0,0,46.523,35.97l.558.6.891,5.648Z" transform="translate(-12.022)" fill="#ddd90f"/><path d="M62.327,34.476a3.746,3.746,0,1,1-3.746-3.746,3.746,3.746,0,0,1,3.746,3.746" transform="translate(-18.12 -10.154)" fill="#ddd90f"/><path d="M80.043,34.476A3.746,3.746,0,1,1,76.3,30.73a3.746,3.746,0,0,1,3.746,3.746" transform="translate(-23.974 -10.154)" fill="#ddd90f"/><path d="M97.76,34.476a3.746,3.746,0,1,1-3.746-3.746,3.746,3.746,0,0,1,3.746,3.746" transform="translate(-29.828 -10.154)" fill="#ddd90f"/><path d="M37.453,88.323a15.36,15.36,0,0,1-2.688-.233c-6.339-1.125-13.986-3.464-22.642-12.29C4.643,68.172.58,60.687.046,53.552-.445,46.99,3.145,41.47,4.71,39.4c2.123-2.8,5.241-4.012,7.761-3,2.057.822,6.746,5.508,8.254,7.944,1.28,2.066,2.4,4.584,1.052,7.6a16.625,16.625,0,0,1-1.112,1.941c-.633,1.005-1.693,2.686-1.656,3.544.054,1.249,1.351,4,4.827,7.63,2.974,3.109,5.834,5.171,7.65,5.514,1.2.231,2.017-.463,2.872-1.572.124-.161.226-.287.3-.368.667-.751,3.187-3.046,7.63-1.154.335.143,8.22,3.541,10.187,7.922,1.9,4.238-.936,6.922-2,7.932l-.054.052a21.374,21.374,0,0,1-12.961,4.937M10.527,41.407a3.046,3.046,0,0,0-1.546,1.225c-.935,1.236-3.958,5.647-3.594,10.519.437,5.839,3.989,12.2,10.56,18.9C23.525,79.776,29.92,81.791,35.7,82.816c5.243.928,10.257-2.587,11.027-3.317l.059-.056c1.1-1.044,1.082-1.215.8-1.847-.591-1.318-4.118-3.791-7.4-5.188-.942-.4-1.438-.319-1.528-.215l-.06.08c-2.277,2.952-5.009,4.153-8.11,3.563-3.791-.717-7.815-4.243-10.523-7.075-2.784-2.909-6.138-7.2-6.307-11.1-.11-2.531,1.384-4.9,2.475-6.633a14.454,14.454,0,0,0,.756-1.276c.174-.388.372-.831-.718-2.593a28.552,28.552,0,0,0-5.644-5.754" transform="translate(0 -11.911)" fill="#ddd90f"/></g></g></g></svg>