<svg xmlns="http://www.w3.org/2000/svg" xmlns:xlink="http://www.w3.org/1999/xlink" width="134" height="134" viewBox="0 0 134 134"><defs><clipPath id="a"><rect width="67.086" height="76.412" fill="none"/></clipPath></defs><g transform="translate(323 -4361)"><circle cx="67" cy="67" r="67" transform="translate(-323 4361)"/><path d="M67,5A61.687,61.687,0,0,0,32.339,15.586,62.2,62.2,0,0,0,9.87,42.868a61.912,61.912,0,0,0,5.715,58.793A62.2,62.2,0,0,0,42.868,124.13a61.912,61.912,0,0,0,58.793-5.715A62.2,62.2,0,0,0,124.13,91.132a61.912,61.912,0,0,0-5.715-58.793A62.2,62.2,0,0,0,91.132,9.87,61.607,61.607,0,0,0,67,5m0-5A67,67,0,1,1,0,67,67,67,0,0,1,67,0Z" transform="translate(-323 4361)" fill="#dae51c"/><g transform="translate(-290 4390)"><g transform="translate(0 0)" clip-path="url(#a)"><path d="M33.884,76.412l-1.251-.571c-.348-.158-8.6-4-16.76-13.912C8.417,52.866-.388,36.755.014,11.465l.02-1.316,1.073-.764A57.108,57.108,0,0,1,20.338,1.436C31.054-.957,47.611-1.54,65.64,9.274l1.111.667.139,1.288a74.174,74.174,0,0,1-2.242,23.985C61.54,47.411,53.884,64.337,35.06,75.7ZM5.208,12.935C5.165,35.7,13.033,50.2,19.718,58.4a51.168,51.168,0,0,0,13.893,12.07C46.763,62.125,55.488,49.9,59.556,34.106A72.82,72.82,0,0,0,61.8,13.058c-12.873-7.386-26.362-9.6-40.115-6.586A55.407,55.407,0,0,0,5.208,12.935" transform="translate(0 0)" fill="#ddd90f"/><path d="M41.775,62.27A18.181,18.181,0,1,1,59.956,44.09,18.2,18.2,0,0,1,41.775,62.27m0-31.153A12.973,12.973,0,1,0,54.749,44.09,12.988,12.988,0,0,0,41.775,31.117" transform="translate(-8.235 -9.043)" fill="#ddd90f"/><path d="M45.174,59.661l-6.159-7.282a2.6,2.6,0,0,1,3.976-3.363l2.366,2.8,5.617-6.047A2.6,2.6,0,1,1,54.79,49.31Z" transform="translate(-13.402 -15.683)" fill="#ddd90f"/></g></g></g></svg>