<svg xmlns="http://www.w3.org/2000/svg" xmlns:xlink="http://www.w3.org/1999/xlink" width="134" height="134" viewBox="0 0 134 134"><defs><clipPath id="a"><rect width="74.779" height="76.412" fill="none"/></clipPath></defs><g transform="translate(323 -3929)"><circle cx="67" cy="67" r="67" transform="translate(-323 3929)"/><path d="M67,5A61.687,61.687,0,0,0,32.339,15.586,62.2,62.2,0,0,0,9.87,42.868a61.912,61.912,0,0,0,5.715,58.793A62.2,62.2,0,0,0,42.868,124.13a61.912,61.912,0,0,0,58.793-5.715A62.2,62.2,0,0,0,124.13,91.132a61.912,61.912,0,0,0-5.715-58.793A62.2,62.2,0,0,0,91.132,9.87,61.607,61.607,0,0,0,67,5m0-5A67,67,0,1,1,0,67,67,67,0,0,1,67,0Z" transform="translate(-323 3929)" fill="#dae51c"/><g transform="translate(-290 3958)"><g clip-path="url(#a)"><path d="M22.361,67.693H5.114A5.119,5.119,0,0,1,0,62.579V5.114A5.12,5.12,0,0,1,5.114,0H53.189A5.12,5.12,0,0,1,58.3,5.114V22.223a2.69,2.69,0,1,1-5.38,0V5.38H5.38V62.313H22.361a2.69,2.69,0,1,1,0,5.38" fill="#ddd90f"/><path d="M49.657,30.439h-29.7a2.69,2.69,0,1,1,0-5.38h29.7a2.69,2.69,0,0,1,0,5.38" transform="translate(-5.654 -8.206)" fill="#ddd90f"/><path d="M31.8,51.708H19.955a2.69,2.69,0,1,1,0-5.38H31.8a2.69,2.69,0,1,1,0,5.38" transform="translate(-5.654 -15.172)" fill="#ddd90f"/><path d="M26.121,72.976H19.955a2.69,2.69,0,1,1,0-5.38h6.166a2.69,2.69,0,1,1,0,5.38" transform="translate(-5.654 -22.137)" fill="#ddd90f"/><path d="M66.568,91.6A22.607,22.607,0,1,1,89.176,69,22.633,22.633,0,0,1,66.568,91.6m0-39.834A17.227,17.227,0,1,0,83.8,69,17.246,17.246,0,0,0,66.568,51.769" transform="translate(-14.397 -15.192)" fill="#ddd90f"/><path d="M68.905,87.552l-8.2-9.692a2.69,2.69,0,0,1,4.109-3.474l4.277,5.057,9.078-9.774a2.69,2.69,0,1,1,3.942,3.661Z" transform="translate(-19.673 -22.534)" fill="#ddd90f"/></g></g></g></svg>