<svg xmlns="http://www.w3.org/2000/svg" xmlns:xlink="http://www.w3.org/1999/xlink" width="134" height="134" viewBox="0 0 134 134"><defs><clipPath id="a"><rect width="83.921" height="71.492" fill="none"/></clipPath></defs><g transform="translate(323 -4217)"><circle cx="67" cy="67" r="67" transform="translate(-323 4217)"/><path d="M67,5A61.687,61.687,0,0,0,32.339,15.586,62.2,62.2,0,0,0,9.87,42.868a61.912,61.912,0,0,0,5.715,58.793A62.2,62.2,0,0,0,42.868,124.13a61.912,61.912,0,0,0,58.793-5.715A62.2,62.2,0,0,0,124.13,91.132a61.912,61.912,0,0,0-5.715-58.793A62.2,62.2,0,0,0,91.132,9.87,61.607,61.607,0,0,0,67,5m0-5A67,67,0,1,1,0,67,67,67,0,0,1,67,0Z" transform="translate(-323 4217)" fill="#dae51c"/><g transform="translate(-298 4242)"><g clip-path="url(#a)"><path d="M116.213,85.483h-5.049V55.05c0-.925-.565-1.616-1.07-1.616h-7.653V48.385h7.653a6.417,6.417,0,0,1,6.119,6.665Z" transform="translate(-37.789 -17.848)" fill="#ddd90f"/><path d="M13.759,85.483H8.71V55.05a6.417,6.417,0,0,1,6.119-6.665h6.6v5.049h-6.6c-.5,0-1.07.691-1.07,1.616Z" transform="translate(-3.213 -17.848)" fill="#ddd90f"/><path d="M30.3,76.352H25.254V30.3a6.709,6.709,0,0,1,6.737-6.665H35.8v5.049H31.991A1.676,1.676,0,0,0,30.3,30.3Z" transform="translate(-9.316 -8.717)" fill="#ddd90f"/><path d="M100.559,76.352H95.51V30.3a1.676,1.676,0,0,0-1.688-1.616H88.308V23.632h5.513a6.709,6.709,0,0,1,6.737,6.665Z" transform="translate(-32.575 -8.717)" fill="#ddd90f"/><path d="M81.4,110.327H2.524a2.524,2.524,0,0,1,0-5.049H81.4a2.524,2.524,0,1,1,0,5.049" transform="translate(0 -38.835)" fill="#ddd90f"/><path d="M56.741,69.4H51.126a4.19,4.19,0,0,0-4.213,4.141V91.907h9.828Z" transform="translate(-17.305 -25.6)" fill="#ddd90f"/><path d="M76.1,69.4H70.487V91.907h9.828V73.539A4.189,4.189,0,0,0,76.1,69.4" transform="translate(-26.001 -25.6)" fill="#ddd90f"/><path d="M63.451,20.563a5.183,5.183,0,1,0,5.183,5.183,5.183,5.183,0,0,0-5.183-5.183" transform="translate(-21.494 -7.585)" fill="#ddd90f"/><path d="M57.41.056A17.6,17.6,0,1,0,73.523,16.169,17.6,17.6,0,0,0,57.41.056m11.19,17.3-1.522.365c.006.144.011.288.011.435a10.947,10.947,0,0,1-.652,3.732l1.336.807a1,1,0,0,1,.338,1.366l-1.178,1.953a1,1,0,0,1-1.366.338l-1.338-.808a10.99,10.99,0,0,1-3.773,2.691l.327,1.527a1,1,0,0,1-.766,1.181l-2.23.477a1,1,0,0,1-1.181-.765l-.327-1.531c-.054,0-.108,0-.162,0a10.945,10.945,0,0,1-3.987-.75L51.289,29.7a1,1,0,0,1-1.375.3l-1.923-1.226a1,1,0,0,1-.3-1.375l.842-1.32a10.987,10.987,0,0,1-2.381-3.335l-1.52.365a1,1,0,0,1-1.2-.735L42.9,20.161a1,1,0,0,1,.735-1.2l1.522-.365c-.006-.145-.011-.289-.011-.434a10.948,10.948,0,0,1,.653-3.733l-1.336-.807a1,1,0,0,1-.338-1.366L45.3,10.3a1,1,0,0,1,1.366-.338L48,10.772a11,11,0,0,1,3.773-2.691L51.45,6.554a1,1,0,0,1,.765-1.181l2.23-.477a1,1,0,0,1,1.181.765l.328,1.531c.054,0,.107,0,.162,0a10.948,10.948,0,0,1,3.987.75l.841-1.317a1,1,0,0,1,1.374-.3l1.923,1.226a1,1,0,0,1,.3,1.375l-.842,1.32a11,11,0,0,1,2.381,3.335l1.52-.365a1,1,0,0,1,1.2.735l.532,2.218a1,1,0,0,1-.735,1.2" transform="translate(-14.159 0)" fill="#ddd90f"/></g></g></g></svg>