<svg xmlns="http://www.w3.org/2000/svg" xmlns:xlink="http://www.w3.org/1999/xlink" width="134" height="134" viewBox="0 0 134 134"><defs><clipPath id="a"><rect width="43.551" height="76.412" fill="none"/></clipPath></defs><g transform="translate(323 -4505)"><circle cx="67" cy="67" r="67" transform="translate(-323 4505)"/><path d="M67,5A61.687,61.687,0,0,0,32.339,15.586,62.2,62.2,0,0,0,9.87,42.868a61.912,61.912,0,0,0,5.715,58.793A62.2,62.2,0,0,0,42.868,124.13a61.912,61.912,0,0,0,58.793-5.715A62.2,62.2,0,0,0,124.13,91.132a61.912,61.912,0,0,0-5.715-58.793A62.2,62.2,0,0,0,91.132,9.87,61.607,61.607,0,0,0,67,5m0-5A67,67,0,1,1,0,67,67,67,0,0,1,67,0Z" transform="translate(-323 4505)" fill="#dae51c"/><g transform="translate(-278 4534)"><g clip-path="url(#a)"><path d="M38.8,76.412H4.751A4.756,4.756,0,0,1,0,71.662V14.742A4.756,4.756,0,0,1,4.751,9.991h5.685V4.751A4.756,4.756,0,0,1,15.186,0H28.365a4.756,4.756,0,0,1,4.75,4.751V9.991H38.8a4.756,4.756,0,0,1,4.75,4.751v56.92a4.756,4.756,0,0,1-4.75,4.751M5.362,71.05H38.189v-55.7H27.754V5.362H15.8v9.991H5.362Z" fill="#ddd90f"/><path d="M21.866,74.766A21.591,21.591,0,1,1,43.457,53.175,21.615,21.615,0,0,1,21.866,74.766m0-37.82A16.229,16.229,0,1,0,38.1,53.175,16.247,16.247,0,0,0,21.866,36.946" transform="translate(-0.091 -10.415)" fill="#ddd90f"/><path d="M24.806,70.983,17.043,61.8a2.681,2.681,0,1,1,4.094-3.462L24.994,62.9l8.325-8.962a2.681,2.681,0,1,1,3.928,3.65Z" transform="translate(-5.411 -17.505)" fill="#ddd90f"/></g></g></g></svg>